Language: English
Genre:Drama | Sci-Fi | Thriller
IMDB:http://www.imdb.com/title/tt1470827/
Source:Limited.720p.BluRay.x264-NoGrp


General
Complete name :Monsters.2010.LiMiTED.BRRip.XviD.Feel-Free
Format : AVI
Format/Info : Audio Video Interleave
File size : 1.26 GiB
Duration : 1h 33mn
Overall bit rate : 1 922 Kbps
Video #0
Codec ID : XVID
Codec ID/Hint : XviD
Duration : 1h 33mn
Bit rate : 1 528 Kbps
Width : 720 pixels
Height : 304 pixels
Display aspect ratio : 2.35:1
Frame rate : 23.976 fps
Resolution : 24 bits
Colorimetry : 4:2:0
Scan type : Progressive
Bits/(Pixel*Frame) : 0.291
Stream size : 1.00 GiB (80%)
Writing library : XviD 1.2.1 (UTC 2008-12-04)
Audio #1
ID : 1
Format : AC-3
Format/Info : Audio Coding 3
Codec ID : 2000
Duration : 1h 33mn
Bit rate mode : Constant
Bit rate : 384 Kbps
Channel(s) : 6 channels
Channel positions : Front: L C R, Surround: L R, LFE
Sampling rate : 48.0 KHz
Stream size : 257 MiB (20%)
Alignment : Split accross interleaves
Interleave, duration : 42 ms (1.00 video frame)
Interleave, preload duration : 500 ms

Plot:
Six years after Earth has suffered an alien invasion a cynical journalist agrees to escort a shaken American tourist through an infected zone in Mexico to the safety of the US border
